<svg width="40" height="40" viewBox="0 0 40 40" fill="none" xmlns="http://www.w3.org/2000/svg">
<rect width="40" height="40" rx="20" fill="white"/>
<path fill-rule="evenodd" clip-rule="evenodd" d="M17 11.9167C15.3431 11.9167 14 13.2598 14 14.9167V25.9167C14 27.5735 15.3431 28.9167 17 28.9167H23C24.6569 28.9167 26 27.5735 26 25.9167V14.9167C26 13.2598 24.6569 11.9167 23 11.9167H17ZM16 14.9167C16 14.3644 16.4477 13.9167 17 13.9167H23C23.5523 13.9167 24 14.3644 24 14.9167V25.9167C24 26.469 23.5523 26.9167 23 26.9167H17C16.4477 26.9167 16 26.469 16 25.9167V14.9167ZM18.3333 24.4167C17.781 24.4167 17.3333 24.8644 17.3333 25.4167C17.3333 25.969 17.781 26.4167 18.3333 26.4167H21.6667C22.219 26.4167 22.6667 25.969 22.6667 25.4167C22.6667 24.8644 22.219 24.4167 21.6667 24.4167H18.3333Z" fill="#8693A3"/>
</svg>
