<svg width="35" height="36" viewBox="0 0 35 36" fill="none" xmlns="http://www.w3.org/2000/svg">
<rect x="0.5" y="0.5" width="34" height="35" rx="17" stroke="#D4D9E0"/>
<path d="M18.9824 19.9697C18.9824 19.8193 18.9591 19.6851 18.9126 19.5669C18.8696 19.4451 18.7891 19.3359 18.6709 19.2393C18.5563 19.139 18.3934 19.0423 18.1821 18.9492C17.9744 18.8525 17.7059 18.7523 17.3765 18.6484C17.0112 18.5339 16.6711 18.4049 16.356 18.2617C16.0409 18.1185 15.7633 17.952 15.5234 17.7622C15.2871 17.5724 15.1027 17.354 14.9702 17.1069C14.8377 16.8563 14.7715 16.5662 14.7715 16.2368C14.7715 15.9146 14.8395 15.6209 14.9756 15.356C15.1152 15.091 15.3122 14.8636 15.5664 14.6738C15.8206 14.4805 16.1196 14.3319 16.4634 14.228C16.8107 14.1242 17.1938 14.0723 17.6128 14.0723C18.1929 14.0723 18.6942 14.1779 19.1167 14.3892C19.5428 14.6004 19.8722 14.8869 20.105 15.2485C20.3377 15.6102 20.4541 16.0166 20.4541 16.4678H18.9824C18.9824 16.2243 18.9305 16.0094 18.8267 15.8232C18.7264 15.637 18.5724 15.4902 18.3647 15.3828C18.1606 15.2754 17.9028 15.2217 17.5913 15.2217C17.2905 15.2217 17.0399 15.2664 16.8394 15.356C16.6424 15.4455 16.4938 15.5672 16.3936 15.7212C16.2969 15.8752 16.2485 16.047 16.2485 16.2368C16.2485 16.38 16.2826 16.509 16.3506 16.6235C16.4186 16.7345 16.5207 16.8402 16.6567 16.9404C16.7928 17.0371 16.9611 17.1284 17.1616 17.2144C17.3657 17.2967 17.6021 17.3791 17.8706 17.4614C18.3003 17.5903 18.6763 17.7336 18.9985 17.8911C19.3244 18.0487 19.5947 18.2277 19.8096 18.4282C20.028 18.6287 20.1909 18.8543 20.2983 19.105C20.4093 19.3556 20.4648 19.6403 20.4648 19.959C20.4648 20.2956 20.3986 20.5964 20.2661 20.8613C20.1336 21.1263 19.9438 21.3519 19.6968 21.5381C19.4497 21.7243 19.1525 21.8657 18.8052 21.9624C18.4614 22.0591 18.0765 22.1074 17.6504 22.1074C17.2708 22.1074 16.8949 22.0573 16.5225 21.957C16.1536 21.8532 15.8188 21.6992 15.5181 21.4951C15.2173 21.2874 14.9774 21.026 14.7983 20.7109C14.6193 20.3923 14.5298 20.0199 14.5298 19.5938H16.0122C16.0122 19.8408 16.0516 20.0521 16.1304 20.2275C16.2127 20.3994 16.3273 20.5409 16.4741 20.6519C16.6245 20.7593 16.8 20.8381 17.0005 20.8882C17.201 20.9383 17.4176 20.9634 17.6504 20.9634C17.9512 20.9634 18.1982 20.9222 18.3916 20.8398C18.5885 20.7539 18.7354 20.6357 18.832 20.4854C18.9323 20.335 18.9824 20.1631 18.9824 19.9697Z" fill="#29364E"/>
</svg>
